<svg width="767" height="132" viewBox="0 0 767 132" fill="none" xmlns="http://www.w3.org/2000/svg">
<path d="M554.018 65.3312C554.018 44.8245 554.018 24.3145 554.018 3.80117C554.018 2.35117 554.348 1.95117 555.838 1.95117C580.191 2.01117 604.524 2.01117 628.838 1.95117C630.278 1.95117 630.728 2.25117 630.688 3.76117C630.578 8.09117 630.588 12.4212 630.688 16.7612C630.688 18.2212 630.338 18.6112 628.858 18.6012C610.738 18.6012 592.628 18.6012 574.518 18.5212C572.878 18.5212 572.458 18.8712 572.518 20.5212C572.598 31.9412 572.598 43.3578 572.518 54.7712C572.518 56.2312 572.858 56.6112 574.348 56.6012C592.018 56.6012 609.688 56.6012 627.348 56.5312C628.808 56.5312 629.228 56.8712 629.188 58.3612C629.078 62.7512 629.098 67.1412 629.188 71.5312C629.188 72.8612 628.848 73.1712 627.538 73.1612C609.858 73.1612 592.188 73.1612 574.538 73.0912C572.868 73.0912 572.538 73.4812 572.538 75.0912C572.618 86.8845 572.618 98.6778 572.538 110.471C572.538 111.951 572.918 112.291 574.388 112.291C593.188 112.291 611.998 112.291 630.798 112.221C632.278 112.221 632.668 112.591 632.638 114.051C632.528 118.501 632.548 122.961 632.638 127.411C632.638 128.601 632.308 128.851 631.168 128.841C605.948 128.841 580.728 128.841 555.508 128.841C553.858 128.841 554.088 127.991 554.088 127.001C554.048 106.461 554.024 85.9045 554.018 65.3312Z" fill="#171943"/>
<path d="M115.008 98.5406C115.008 105.151 115.008 111.731 115.008 118.301C115.032 118.626 114.946 118.95 114.765 119.222C114.584 119.493 114.318 119.697 114.008 119.801C105.133 124.353 95.6595 127.632 85.8684 129.541C82.3483 130.191 78.7916 130.625 75.2184 130.841C72.3593 131.097 69.487 131.174 66.6184 131.071C57.4387 130.731 48.3977 128.721 39.9384 125.141C32.9426 122.077 26.4917 117.896 20.8384 112.761C11.9955 104.78 5.62705 94.431 2.48837 82.9406C1.28096 78.4559 0.513992 73.8642 0.198371 69.2306C-0.691629 58.6106 1.46837 48.6706 5.56837 39.0306C9.32537 30.6161 14.9108 23.1449 21.9184 17.1606C28.7087 11.0722 36.7206 6.50375 45.4184 3.76056C50.9622 2.01644 56.679 0.879771 62.4684 0.37056C67.2708 -0.0389894 72.0961 -0.109163 76.9084 0.160561C83.1548 0.494962 89.3438 1.53149 95.3584 3.25056C101.19 4.90895 106.909 6.9432 112.478 9.34056C112.932 9.47216 113.325 9.7603 113.587 10.1539C113.849 10.5474 113.963 11.021 113.908 11.4906C113.848 17.6306 113.908 23.7806 113.908 30.1406C111.268 28.8506 108.708 27.6606 106.188 26.3706C99.0769 22.783 91.5161 20.1663 83.7084 18.5906C77.9813 17.3657 72.1072 16.975 66.2684 17.4306C55.4284 18.3806 45.4984 21.6406 37.0084 28.7606C30.0084 34.5706 24.8084 41.4906 22.0084 50.1406C20.7377 54.2296 19.9917 58.4635 19.7884 62.7406C19.1394 71.5509 20.9904 80.3655 25.1284 88.1706C28.6237 94.5771 33.5279 100.106 39.4712 104.342C45.4145 108.577 52.2418 111.408 59.4384 112.621C64.5176 113.487 69.689 113.678 74.8184 113.191C82.4335 112.451 89.903 110.623 96.9984 107.761C102.814 105.425 108.391 102.532 113.648 99.1206C114.056 98.8347 114.52 98.6372 115.008 98.5406V98.5406Z" fill="#171943"/>
<path d="M470.018 1.99023C487.948 1.99023 505.868 1.99023 523.798 1.99023C525.348 1.99023 525.798 2.32024 525.748 3.91024C525.618 8.36024 525.638 12.8202 525.748 17.2702C525.748 18.6802 525.418 19.0102 524.008 19.0102C509.728 18.9502 495.458 19.0102 481.178 18.9302C479.608 18.9302 479.248 19.3002 479.248 20.8602C479.301 56.1936 479.325 91.5269 479.318 126.86C479.318 128.54 478.948 129.04 477.208 128.99C472.368 128.86 467.528 128.88 462.688 128.99C461.108 128.99 460.748 128.63 460.748 127.06C460.795 91.7269 460.821 56.3936 460.828 21.0602C460.828 19.3902 460.458 18.9202 458.718 18.9302C444.508 19.0102 430.288 18.9302 416.078 19.0102C414.688 19.0102 414.288 18.7102 414.318 17.2802C414.428 12.7702 414.418 8.28024 414.318 3.73024C414.318 2.32024 414.658 1.99024 416.068 2.00024C434.041 2.0269 452.025 2.02357 470.018 1.99023Z" fill="#171943"/>
<path d="M278.138 64.1504C278.035 60.1267 277.638 56.116 276.948 52.1504C275.653 45.591 273.263 39.2963 269.878 33.5304C265.98 26.8604 260.952 20.9187 255.018 15.9704C251.502 12.9457 247.662 10.3197 243.568 8.14042C233.145 2.60164 221.468 -0.153845 209.668 0.140421C206.725 -0.0943994 203.763 0.0568849 200.858 0.590422C194.67 1.48458 188.621 3.16482 182.858 5.59042C176.283 8.38274 170.204 12.2226 164.858 16.9604C157.779 23.1125 152.118 30.7278 148.268 39.2804C144.893 46.8108 142.959 54.9074 142.568 63.1504C142.49 66.8672 142.727 70.5839 143.278 74.2604C144.012 80.3586 145.678 86.3079 148.218 91.9004C152.192 100.652 158.06 108.413 165.398 114.62C170.941 119.325 177.182 123.137 183.898 125.92C191.797 129.123 200.208 130.875 208.728 131.09C211.018 131.18 213.328 130.94 215.618 130.83C220.589 130.591 225.513 129.762 230.288 128.36C244.487 124.397 256.959 115.81 265.728 103.96C274.431 92.5694 278.826 78.4688 278.138 64.1504V64.1504ZM208.498 113.4C195.996 112.988 184.153 107.691 175.512 98.6458C166.871 89.6008 162.12 77.5287 162.278 65.0204C162.278 38.9404 184.208 16.3804 213.068 17.4504C236.618 18.3104 258.898 39.5504 258.448 65.5304C259.028 90.8804 237.208 114.57 208.498 113.4Z" fill="#171943"/>
<path d="M766.458 128.311L753.618 109.021C747.958 100.511 742.378 91.9512 736.618 83.5012C732.798 77.9012 729.288 71.9812 723.158 68.4312C723.419 68.1318 723.77 67.9248 724.158 67.8412C729.158 66.1512 733.898 63.8412 737.748 60.2112C743.358 54.8712 745.668 48.0012 746.108 40.4812C746.404 36.3926 746.179 32.283 745.438 28.2512C744.774 24.4141 743.355 20.7472 741.262 17.4632C739.17 14.1792 736.446 11.3437 733.248 9.12119C726.128 4.12119 717.968 2.28119 709.538 2.12119C696.468 1.80119 683.378 2.05119 670.288 2.00119C669.058 2.00119 668.748 2.32119 668.748 3.54119C668.748 44.8212 668.748 86.1012 668.748 127.381C668.748 128.581 669.028 128.951 670.278 128.931C675.278 128.851 680.348 128.831 685.378 128.931C686.948 128.931 687.318 128.571 687.308 127.001C687.248 109.501 687.308 92.0012 687.308 74.4912C687.308 74.0612 687.308 73.6112 687.308 73.1812C687.308 72.7512 687.518 72.4112 688.078 72.4112C692.158 72.4812 696.228 72.2412 700.268 73.4112C706.658 75.2412 710.898 79.7812 714.748 84.6712C720.588 92.0912 725.428 100.221 730.688 108.061C735.028 114.521 739.258 121.061 743.458 127.601C743.65 128.012 743.959 128.357 744.347 128.592C744.736 128.827 745.185 128.942 745.638 128.921C749.478 128.871 753.308 128.921 757.148 128.921H766.508C766.458 128.551 766.508 128.401 766.458 128.311ZM713.458 55.4312C710.178 56.3612 706.768 56.3712 703.388 56.6712C698.498 57.1012 693.628 56.7312 688.758 56.9812C687.518 57.0412 687.198 56.6712 687.208 55.4412C687.278 49.4412 687.208 43.4412 687.208 37.3812C687.208 31.3212 687.208 25.3812 687.208 19.3212C687.208 18.1012 687.508 17.7612 688.748 17.7712C694.538 17.8412 700.338 17.5412 706.098 17.8812C711.648 18.2112 717.168 19.0312 721.668 22.8812C724.016 24.9006 725.653 27.6209 726.338 30.6412C727.779 35.7408 727.426 41.1806 725.338 46.0512C723.068 51.3012 718.708 53.9512 713.478 55.4312H713.458Z" fill="#171943"/>
<path d="M393.228 29.4716C391.763 21.6159 387.334 14.6239 380.858 9.9416C373.238 4.3916 364.378 2.27161 355.168 2.07161C341.398 1.77161 327.618 2.0216 313.838 1.9516C312.338 1.9516 312.018 2.3616 312.018 3.8016C312.065 24.3083 312.065 44.8216 312.018 65.3416C311.972 85.8616 311.972 106.438 312.018 127.072C312.018 128.562 312.408 128.922 313.868 128.892C318.578 128.802 323.298 128.752 328.018 128.892C329.878 128.952 330.228 128.422 330.218 126.652C330.138 109.772 330.218 92.8916 330.128 76.0216C330.128 74.4916 330.578 74.1316 331.998 74.2216C333.948 74.3416 335.898 74.3016 337.848 74.2216C346.848 73.9416 355.958 75.0016 364.938 73.1216C373.218 71.3916 380.468 68.0016 386.178 61.5416C391.108 55.9716 393.318 49.3916 393.898 42.2216C394.286 37.9614 394.06 33.6677 393.228 29.4716V29.4716ZM373.698 45.7616C371.958 51.7616 367.588 54.9616 361.838 56.5716C359.408 57.2036 356.924 57.6054 354.418 57.7716C346.908 58.3916 339.418 57.9216 331.878 58.1416C330.468 58.1416 330.118 57.8116 330.138 56.4016C330.218 50.3216 330.138 44.2416 330.138 38.1616C330.138 32.0816 330.138 26.1616 330.138 20.1616C330.138 18.9716 330.388 18.5816 331.658 18.5916C338.318 18.6616 344.988 18.4716 351.658 18.6816C356.598 18.8416 361.588 19.3716 366.078 21.6816C370.858 24.1516 373.408 28.3516 374.328 33.5716C375.064 37.629 374.848 41.8016 373.698 45.7616V45.7616Z" fill="#171943"/>
<path d="M252.208 61.041C250.938 58.371 250.288 55.471 249.078 52.761C247.226 48.5891 244.854 44.668 242.018 41.091C238.201 36.3205 233.265 32.5661 227.648 30.161C223.897 28.3454 219.812 27.324 215.648 27.161C215.522 27.181 215.394 27.181 215.268 27.161C212.658 25.981 213.268 27.901 213.138 29.281C213.048 30.281 213.508 30.701 214.398 30.931C217.801 31.8309 221.11 33.0566 224.278 34.591C234.278 39.351 241.498 46.401 243.798 57.671C244.091 58.9241 244.043 60.2328 243.658 61.461C242.548 59.461 241.508 57.341 240.318 55.351C237.674 50.8436 234.138 46.9226 229.928 43.8277C225.717 40.7329 220.919 38.5291 215.828 37.351C215.128 37.171 214.328 37.561 213.658 37.001C213.578 36.931 213.158 37.121 213.048 37.291C212.478 38.141 212.898 39.111 212.778 40.021C212.628 41.221 213.358 41.291 214.348 41.531C219.369 42.691 223.983 45.1895 227.698 48.761C231.018 52.001 233.808 55.761 234.328 60.681C234.328 61.091 234.708 61.501 234.118 61.731C233.378 62.021 233.488 61.251 233.328 60.981C230.687 56.2333 226.676 52.3927 221.818 49.961C219.225 48.7614 216.468 47.9526 213.638 47.561C213.068 47.471 212.428 47.321 212.378 48.381C212.188 52.271 211.878 56.161 211.658 60.061C211.75 60.7941 212.081 61.4765 212.6 62.0025C213.119 62.5286 213.796 62.869 214.528 62.971C221.958 62.971 229.398 63.291 236.798 62.881C242.318 62.571 247.798 62.831 253.318 62.591C254.318 62.591 254.758 62.781 254.698 63.891C254.178 74.001 251.998 83.651 245.808 91.891C239.868 99.771 231.748 104.401 222.028 106.331C219.332 106.933 216.564 107.141 213.808 106.951C213.96 106.681 214.173 106.45 214.43 106.277C214.687 106.103 214.981 105.992 215.288 105.951C221.55 104.125 227.443 101.214 232.698 97.351C239.947 91.9908 245.069 84.2412 247.158 75.471C247.621 73.1245 247.922 70.7488 248.058 68.361C248.084 68.2555 248.081 68.145 248.05 68.0411C248.018 67.9372 247.959 67.8438 247.878 67.771C247.008 66.961 244.438 67.701 244.118 68.891C242.91 73.4062 241.129 77.7482 238.818 81.811C233.818 90.731 226.508 96.501 216.338 98.411C215.433 98.496 214.523 98.496 213.618 98.411C213.508 97.471 214.228 97.481 214.568 97.331C220.13 94.9148 225.094 91.3065 229.108 86.761C233.768 81.4907 236.855 75.0187 238.018 68.081C238.06 67.9652 238.061 67.8386 238.021 67.7222C237.981 67.6058 237.902 67.5066 237.798 67.441C236.688 66.751 235.478 67.161 234.318 67.171C233.498 67.171 233.668 68.011 233.508 68.611C232.276 73.6615 229.75 78.304 226.178 82.081C222.978 85.301 219.268 87.901 214.558 88.671C213.938 88.771 213.428 89.001 213.218 88.361C213.008 87.721 213.828 87.691 214.218 87.491C220.063 84.2462 224.461 78.9081 226.528 72.551C227.058 70.951 226.928 69.291 227.528 67.731C227.768 67.111 227.528 66.731 226.678 66.731C224.068 66.731 221.468 66.191 218.838 66.361C218.164 66.4023 217.487 66.3279 216.838 66.141C216.233 65.9161 215.581 65.8493 214.943 65.947C214.306 66.0447 213.703 66.3036 213.194 66.6992C212.684 67.0947 212.284 67.6139 212.031 68.2074C211.778 68.801 211.68 69.4493 211.748 70.091C212.468 82.361 211.928 94.631 212.098 106.901C212.098 109.491 212.098 109.551 209.588 109.281C204.487 108.907 199.447 107.944 194.568 106.411C180.688 101.581 172.128 91.951 168.568 77.781C167.938 75.271 168.038 72.671 167.468 70.161C167.338 69.611 167.358 68.891 168.008 68.721C168.958 68.471 168.658 69.511 168.768 69.851C170.431 75.3087 172.859 80.5035 175.978 85.281C181.223 93.3348 189.274 99.1515 198.568 101.601C200.923 102.374 203.407 102.673 205.878 102.481C206.438 102.411 207.488 103.061 207.458 101.851C207.428 100.641 208.188 99.211 206.388 98.771C203.971 98.1707 201.598 97.4022 199.288 96.471C190.718 93.081 183.608 87.881 179.228 79.591C177.625 76.3202 176.61 72.7932 176.228 69.171C176.228 68.861 176.028 68.401 176.588 68.261C177.148 68.121 177.328 68.511 177.488 68.941C179.336 73.6 182.081 77.8505 185.568 81.451C189.295 85.386 193.838 88.4578 198.878 90.451C201.417 91.4851 204.074 92.2005 206.788 92.581C207.248 92.651 207.448 92.751 207.528 92.231C207.608 91.711 207.838 90.921 207.898 90.231C208.008 89.121 207.898 88.471 206.378 88.091C200.85 86.861 195.813 84.0134 191.908 79.911C189.117 76.9977 187.105 73.4277 186.058 69.531C185.918 69.011 185.828 68.261 186.468 68.051C186.958 67.891 187.278 68.501 187.468 68.921C189.182 72.0825 191.544 74.8469 194.399 77.0335C197.255 79.2202 200.539 80.78 204.038 81.611C205.038 81.871 206.088 81.611 207.128 82.091C207.908 82.461 208.298 81.671 208.248 80.861C208.068 77.621 208.888 74.411 208.638 71.161C208.591 70.5991 208.625 70.0333 208.738 69.481C208.849 69.1085 208.869 68.7149 208.796 68.3332C208.723 67.9515 208.56 67.5928 208.32 67.2872C208.08 66.9816 207.77 66.738 207.417 66.5768C207.063 66.4156 206.676 66.3416 206.288 66.361C202.098 66.231 197.938 66.831 193.738 66.771C184.868 66.651 175.998 66.711 167.128 66.771C165.938 66.771 165.388 66.531 165.588 65.251C166.278 60.791 166.588 56.251 167.808 51.891C169.299 46.4414 171.859 41.3426 175.338 36.891C180.828 30.001 188.008 25.891 196.428 23.721C199.306 23.121 202.213 22.6737 205.138 22.381C205.518 22.321 206.198 22.011 206.348 22.811C206.498 23.611 205.768 23.441 205.348 23.571C200.28 25.1019 195.43 27.2798 190.918 30.051C183.691 34.3718 178.073 40.9345 174.918 48.741C173.351 52.5596 172.5 56.6342 172.408 60.761C172.408 61.321 171.988 62.381 173.228 62.151C174.228 61.971 175.678 63.001 176.168 61.151C177.652 55.3848 180.067 49.8994 183.318 44.911C187.859 38.0379 194.876 33.1809 202.908 31.351C203.788 31.131 204.748 31.461 205.648 30.981C205.908 30.841 206.538 30.691 206.718 31.311C206.898 31.931 206.468 32.041 206.048 32.211C203.92 33.1004 201.881 34.1885 199.958 35.461C191.278 41.031 185.428 48.661 182.958 58.731C182.958 58.971 182.898 59.221 182.828 59.451C182.168 61.891 182.638 62.451 185.138 62.571C186.058 62.571 186.508 62.411 186.808 61.331C187.637 57.9747 188.986 54.7691 190.808 51.831C194.153 46.4092 199.427 42.4543 205.568 40.761C206.073 40.6954 206.584 40.6954 207.088 40.761C207.088 41.891 206.228 42.091 205.578 42.481C202.411 44.3278 199.668 46.821 197.528 49.7982C195.388 52.7755 193.899 56.1701 193.158 59.761C193.143 59.9473 193.143 60.1346 193.158 60.321C193.028 63.031 193.048 62.781 195.728 63.091C199.248 63.501 202.808 63.031 206.298 63.751C206.788 63.851 208.628 61.751 208.628 61.001C208.628 53.911 208.958 46.801 208.538 39.731C208.178 33.661 208.538 27.611 208.238 21.561C208.178 20.321 208.888 20.451 209.648 20.491C215.472 20.7079 221.233 21.7758 226.748 23.661C232.826 25.6843 238.293 29.214 242.638 33.921C247.469 39.2653 250.729 45.8406 252.058 52.921C252.553 55.0181 252.802 57.1661 252.798 59.321C252.768 59.911 252.978 60.591 252.208 61.041Z" fill="#171943"/>
</svg>
